<svg version="1.1" xmlns="http://www.w3.org/2000/svg" xmlns:xlink="http://www.w3.org/1999/xlink" width="500.68631" height="365.86611" viewBox="0,0,500.68631,365.86611"><g transform="translate(14.46508,1.00203)"><g data-paper-data="{&quot;isPaintingLayer&quot;:true}" fill-rule="nonzero" stroke-linecap="butt" stroke-linejoin="miter" stroke-miterlimit="10" stroke-dasharray="" stroke-dashoffset="0" style="mix-blend-mode: normal"><path d="M0.05,0h480.9419v290l-479.98805,-15z" fill="#99ffff" stroke="#ccffff" stroke-width="2.00406"/><path d="M434.79868,222.98325c15.5166,-0.68835 32.98135,5.46597 42.48836,17.44064c10.12299,12.6927 7.34919,31.62321 6.49385,47.68344c0.41746,16.52593 2.12813,35.45459 -7.79262,48.88944c-9.16561,12.44408 -25.86038,21.5262 -41.18959,21.42972c-22.80456,-0.14287 -48.78739,-7.58853 -65.5805,-19.84707c-16.79311,-12.2604 -27.18884,-29.1908 -27.18884,-47.87454c0,-18.68375 10.39573,-35.61415 27.18884,-47.87454c16.79311,-12.25854 42.79264,-18.85444 65.5805,-19.84707z" fill="#00cc44" stroke="#00cc44" stroke-width="2.88235"/><path d="M61.66898,238.54217c15.41794,0 29.38853,3.84941 39.50435,10.06776c10.11582,6.21929 16.378,14.80753 16.378,24.28518c0,9.47765 -6.26218,18.06588 -16.378,24.28517c-10.11582,6.21835 -24.08641,10.06776 -39.50435,10.06776c-15.41794,0 -29.38853,-3.84941 -39.50435,-10.06776c-10.11582,-6.21929 -16.378,-14.80753 -16.378,-24.28517c0,-9.47765 6.26218,-18.06588 16.378,-24.28518c10.11582,-6.21835 24.08641,-10.06776 39.50435,-10.06776z" fill="#00cc44" stroke="#00cc44" stroke-width="2.06637"/><path d="M172.24535,228.91074c19.88103,0 37.89573,5.89441 50.93982,15.41627c13.04409,9.52329 21.119,22.67403 21.119,37.18668c0,14.51265 -8.07491,27.66338 -21.119,37.18667c-13.04409,9.52185 -31.05879,15.41626 -50.93982,15.41626c-19.88103,0 -37.89573,-5.89441 -50.93982,-15.41626c-13.04409,-9.52329 -21.119,-22.67403 -21.119,-37.18667c0,-14.51265 8.07491,-27.66338 21.119,-37.18668c13.04409,-9.52185 31.05879,-15.41627 50.93982,-15.41627z" fill="#00cc44" stroke="#00cc44" stroke-width="2.88235"/><path d="M294.45104,204.07629c19.88103,0 37.89573,5.89441 50.93982,15.41627c13.04409,9.52329 21.119,22.67403 21.119,37.18668c0,14.51265 -8.07491,27.66338 -21.119,37.18667c-13.04409,9.52185 -31.05879,15.41626 -50.93982,15.41626c-19.88103,0 -37.89573,-5.89441 -50.93982,-15.41626c-13.04409,-9.52329 -21.119,-22.67403 -21.119,-37.18667c0,-14.51265 8.07491,-27.66338 21.119,-37.18668c13.04409,-9.52185 31.05879,-15.41627 50.93982,-15.41627z" fill="#00cc44" stroke="#00cc44" stroke-width="2.88235"/><path d="M-11.65907,242.09989c5.94523,-3.21318 16.1986,10.32094 22.58866,19.19718c4.81531,6.67388 10.26528,14.98541 10.26528,24.28518c0,9.29976 -4.03214,20.24659 -10.26528,24.28517l-20.5922,-3.76753l-0.98071,-34.9647c-0.32153,-11.64329 -5.85697,-27.32894 -1.01574,-29.03529z" fill="#00cc44" stroke="#00cc44" stroke-width="1.65923"/><path d="M-7.65719,292.52007l470,-3l8,60l-480,5z" fill="#00cc44" stroke="#00cc44" stroke-width="2"/><path d="M-4.98753,338.61669h484.97502v24.93333h-484.97502z" fill="#663b00" stroke="#663b00" stroke-width="2.62812"/></g></g></svg>